<mxfile host="app.diagrams.net" modified="2024-02-04T15:29:19.030Z" agent="Mozilla/5.0 (Windows NT 10.0; Win64; x64) AppleWebKit/537.36 (KHTML, like Gecko) Chrome/121.0.0.0 Safari/537.36 Edg/121.0.0.0" version="23.1.1" etag="kEBfShf-fJbKERAp_UPW" type="github">
  <diagram name="Page-1" id="WyLELm8vCF-wq_bEhnT-">
    <mxGraphModel>
      <root>
        <mxCell id="0" />
        <mxCell id="1" parent="0" />
      </root>
    </mxGraphModel>
  </diagram>
</mxfile>
